STARTFONT 2.1
COMMENT 
COMMENT From: Id: cu-arabic12.bdf,v 1.4 1999/04/22 18:39:51 mleisher Exp $
COMMENT 
COMMENT Copyright 1997, 1998, 1999 Computing Research Labs, New Mexico State
COMMENT University
COMMENT 
COMMENT Permission is hereby granted, free of charge, to any person
COMMENT obtaining a copy of this software and associated documentation
COMMENT files (the "Software"), to deal in the Software without
COMMENT restriction, including without limitation the rights to use,
COMMENT copy, modify, merge, publish, distribute, sublicense, and/or
COMMENT sell copies of the Software, and to permit persons to whom the
COMMENT Software is furnished to do so, subject to the following
COMMENT conditions:
COMMENT 
COMMENT The above copyright notice and this permission notice shall be
COMMENT included in all copies or substantial portions of the Software.
COMMENT 
COMMENT THE SOFTWARE IS PROVIDED "AS IS", WITHOUT WARRANTY OF ANY KIND,
COMMENT EXPRESS OR IMPLIED, INCLUDING BUT NOT LIMITED TO THE WARRANTIES
COMMENT OF MERCHANTABILITY, FITNESS FOR A PARTICULAR PURPOSE AND
COMMENT NONINFRINGEMENT.  IN NO EVENT SHALL THE COMPUTING RESEARCH LAB
COMMENT OR NEW MEXICO STATE UNIVERSITY BE LIABLE FOR ANY CLAIM, DAMAGES
COMMENT OR OTHER LIABILITY, WHETHER IN AN ACTION OF CONTRACT, TORT OR
COMMENT OTHERWISE, ARISING FROM, OUT OF OR IN CONNECTION WITH THE
COMMENT SOFTWARE OR THE USE OR OTHER DEALINGS IN THE SOFTWARE.
COMMENT 
COMMENT This font contains the contextual glyph forms that are not encoded
COMMENT in Unicode.
COMMENT 
FONT -MUTT-ClearlyU Arabic Extra-Medium-R-Normal--17-120-100-100-P-103-FontSpecific-0
SIZE 12 100 100
FONTBOUNDINGBOX 22 26 -1 -9
STARTPROPERTIES 20
POINT_SIZE 120
PIXEL_SIZE 17
RESOLUTION_X 100
RESOLUTION_Y 100
FONT_ASCENT 17
FONT_DESCENT 9
AVERAGE_WIDTH 103
SPACING "P"
FOUNDRY "MUTT"
FAMILY_NAME "ClearlyU Arabic Extra"
WEIGHT_NAME "Medium"
SLANT "R"
SETWIDTH_NAME "Normal"
ADD_STYLE_NAME ""
CHARSET_REGISTRY "FontSpecific"
CHARSET_ENCODING "0"
_XMBDFED_INFO "Edited with xmbdfed 3.5."
CAP_HEIGHT 11
X_HEIGHT 7
_XFREE86_GLYPH_RANGES "0_178 208_213 240 244"
ENDPROPERTIES
CHARS 187
STARTCHAR 0x0000
ENCODING 0
SWIDTH 300 0
DWIDTH 5 0
BBX 5 16 -1 0
BITMAP
18
20
18
E0
00
10
10
18
10
10
10
10
10
10
10
10
ENDCHAR
STARTCHAR 0x0001
ENCODING 1
SWIDTH 360 0
DWIDTH 6 0
BBX 7 18 -1 -1
BITMAP
18
20
18
E0
00
00
10
10
18
10
10
10
10
10
10
10
10
0E
ENDCHAR
STARTCHAR 0x0002
ENCODING 2
SWIDTH 300 0
DWIDTH 5 0
BBX 5 16 -1 -5
BITMAP
10
10
18
10
10
10
10
10
10
10
10
00
18
20
18
E0
ENDCHAR
STARTCHAR 0x0003
ENCODING 3
SWIDTH 360 0
DWIDTH 6 0
BBX 7 17 -1 -6
BITMAP
10
10
18
10
10
10
10
10
10
10
10
0E
00
18
20
18
E0
ENDCHAR
STARTCHAR 0x0004
ENCODING 4
SWIDTH 360 0
DWIDTH 6 0
BBX 6 13 2 0
BITMAP
0C
10
8C
90
C0
80
80
80
80
80
80
80
80
ENDCHAR
STARTCHAR 0x0005
ENCODING 5
SWIDTH 360 0
DWIDTH 6 0
BBX 6 14 2 -1
BITMAP
0C
10
8C
90
C0
80
80
80
80
80
80
80
80
70
ENDCHAR
STARTCHAR 0x0006
ENCODING 6
SWIDTH 540 0
DWIDTH 9 0
BBX 10 12 -1 -3
BITMAP
00C0
0100
00C0
0100
0400
0A00
0A00
0E00
0200
0200
8400
7800
ENDCHAR
STARTCHAR 0x0007
ENCODING 7
SWIDTH 660 0
DWIDTH 11 0
BBX 10 12 1 -3
BITMAP
00C0
0100
00C0
0100
0400
0A00
0A00
0E00
0300
0280
8400
7800
ENDCHAR
STARTCHAR 0x0008
ENCODING 8
SWIDTH 660 0
DWIDTH 11 0
BBX 13 13 0 -3
BITMAP
0018
0020
0018
0020
0000
01C0
4200
4400
8700
8080
8080
8300
7C00
ENDCHAR
STARTCHAR 0x0009
ENCODING 9
SWIDTH 660 0
DWIDTH 11 0
BBX 10 10 1 -5
BITMAP
00C0
0100
00C0
0100
0000
41C0
8300
8080
8300
7C00
ENDCHAR
STARTCHAR 0x000A
ENCODING 10
SWIDTH 360 0
DWIDTH 6 0
BBX 8 10 0 -1
BITMAP
03
04
03
04
10
08
08
08
08
F0
ENDCHAR
STARTCHAR 0x000B
ENCODING 11
SWIDTH 420 0
DWIDTH 7 0
BBX 7 10 0 -1
BITMAP
06
08
06
08
20
20
10
10
10
FE
ENDCHAR
STARTCHAR 0x000C
ENCODING 12
SWIDTH 840 0
DWIDTH 14 0
BBX 12 12 0 -4
BITMAP
0A00
0A00
0000
0020
8010
8010
8010
4060
3F80
0600
0900
0600
ENDCHAR
STARTCHAR 0x000D
ENCODING 13
SWIDTH 900 0
DWIDTH 15 0
BBX 14 12 1 -4
BITMAP
0A00
0A00
0000
0020
8020
8010
8010
4070
3F8C
0600
0900
0600
ENDCHAR
STARTCHAR 0x000E
ENCODING 14
SWIDTH 360 0
DWIDTH 6 0
BBX 5 13 0 -4
BITMAP
28
28
00
00
10
08
08
08
08
F0
60
90
60
ENDCHAR
STARTCHAR 0x000F
ENCODING 15
SWIDTH 420 0
DWIDTH 7 0
BBX 7 13 0 -4
BITMAP
50
50
00
00
20
20
10
10
10
EE
60
90
60
ENDCHAR
STARTCHAR 0x0010
ENCODING 16
SWIDTH 840 0
DWIDTH 14 0
BBX 12 9 0 -1
BITMAP
0A00
0A00
0000
0420
8410
8010
8010
4060
3F80
ENDCHAR
STARTCHAR 0x0011
ENCODING 17
SWIDTH 900 0
DWIDTH 15 0
BBX 14 12 1 -1
BITMAP
0A00
0A00
0000
0400
0400
0000
0020
8020
8010
8010
4070
3F8C
ENDCHAR
STARTCHAR 0x0012
ENCODING 18
SWIDTH 360 0
DWIDTH 6 0
BBX 5 13 0 -1
BITMAP
28
28
00
10
10
00
00
10
08
08
08
08
F0
ENDCHAR
STARTCHAR 0x0013
ENCODING 19
SWIDTH 420 0
DWIDTH 7 0
BBX 7 13 0 -1
BITMAP
50
50
00
20
20
00
00
20
20
10
10
10
EE
ENDCHAR
STARTCHAR 0x0014
ENCODING 20
SWIDTH 600 0
DWIDTH 10 0
BBX 8 16 1 -6
BITMAP
18
20
18
20
00
7E
B0
40
C0
80
80
80
80
C0
61
3E
ENDCHAR
STARTCHAR 0x0015
ENCODING 21
SWIDTH 660 0
DWIDTH 11 0
BBX 10 15 1 -6
BITMAP
1800
2000
1800
2000
0000
7F00
B200
4200
C200
81C0
8000
8000
C000
6100
3E00
ENDCHAR
STARTCHAR 0x0016
ENCODING 22
SWIDTH 660 0
DWIDTH 11 0
BBX 10 11 0 -1
BITMAP
1800
2000
1800
2000
0000
1800
2400
4200
0100
0080
FFC0
ENDCHAR
STARTCHAR 0x0017
ENCODING 23
SWIDTH 660 0
DWIDTH 11 0
BBX 11 11 0 -1
BITMAP
1800
2000
1800
2000
0000
1800
2400
4200
0100
0080
FFE0
ENDCHAR
STARTCHAR 0x0018
ENCODING 24
SWIDTH 600 0
DWIDTH 10 0
BBX 8 18 1 -6
BITMAP
10
10
00
10
10
00
00
7E
B0
40
C0
80
80
80
80
C0
61
3E
ENDCHAR
STARTCHAR 0x0019
ENCODING 25
SWIDTH 660 0
DWIDTH 11 0
BBX 10 16 1 -6
BITMAP
1000
1000
0000
1000
1000
0000
7F00
B200
4200
C200
81C0
8000
8000
C000
6100
3E00
ENDCHAR
STARTCHAR 0x001A
ENCODING 26
SWIDTH 660 0
DWIDTH 11 0
BBX 10 12 0 -1
BITMAP
1000
1000
0000
1000
1000
0000
1800
2400
4200
0100
0080
FFC0
ENDCHAR
STARTCHAR 0x001B
ENCODING 27
SWIDTH 660 0
DWIDTH 11 0
BBX 11 12 0 -1
BITMAP
1000
1000
0000
1000
1000
0000
1800
2400
4200
0100
0080
FFE0
ENDCHAR
STARTCHAR 0x001C
ENCODING 28
SWIDTH 600 0
DWIDTH 10 0
BBX 8 18 1 -6
BITMAP
10
10
00
28
28
00
00
7E
B0
40
C0
80
80
80
80
C0
61
3E
ENDCHAR
STARTCHAR 0x001D
ENCODING 29
SWIDTH 660 0
DWIDTH 11 0
BBX 10 16 1 -6
BITMAP
1000
1000
0000
2800
2800
0000
7F00
B200
4200
C200
81C0
8000
8000
C000
6100
3E00
ENDCHAR
STARTCHAR 0x001E
ENCODING 30
SWIDTH 660 0
DWIDTH 11 0
BBX 10 12 0 -1
BITMAP
1000
1000
0000
2800
2800
0000
1800
2400
4200
0100
0080
FFC0
ENDCHAR
STARTCHAR 0x001F
ENCODING 31
SWIDTH 660 0
DWIDTH 11 0
BBX 11 12 0 -1
BITMAP
1000
1000
0000
2800
2800
0000
1800
2400
4200
0100
0080
FFE0
ENDCHAR
STARTCHAR 0x0020
ENCODING 32
SWIDTH 420 0
DWIDTH 7 0
BBX 5 8 0 -3
BITMAP
10
10
08
08
88
78
28
10
ENDCHAR
STARTCHAR 0x0021
ENCODING 33
SWIDTH 480 0
DWIDTH 8 0
BBX 7 8 1 -3
BITMAP
10
10
08
08
8C
7A
28
10
ENDCHAR
STARTCHAR 0x0022
ENCODING 34
SWIDTH 420 0
DWIDTH 7 0
BBX 5 9 0 -4
BITMAP
10
10
08
08
88
78
00
10
10
ENDCHAR
STARTCHAR 0x0023
ENCODING 35
SWIDTH 480 0
DWIDTH 8 0
BBX 7 9 1 -4
BITMAP
10
10
08
08
8C
7A
00
10
10
ENDCHAR
STARTCHAR 0x0024
ENCODING 36
SWIDTH 420 0
DWIDTH 7 0
BBX 5 14 0 -4
BITMAP
20
20
38
38
00
10
10
08
08
88
78
00
18
18
ENDCHAR
STARTCHAR 0x0025
ENCODING 37
SWIDTH 480 0
DWIDTH 8 0
BBX 7 14 1 -4
BITMAP
20
20
38
38
00
10
10
08
08
8C
7A
00
18
18
ENDCHAR
STARTCHAR 0x0026
ENCODING 38
SWIDTH 420 0
DWIDTH 7 0
BBX 5 13 0 -1
BITMAP
50
50
00
20
20
00
00
10
10
08
08
88
78
ENDCHAR
STARTCHAR 0x0027
ENCODING 39
SWIDTH 480 0
DWIDTH 8 0
BBX 7 13 1 -1
BITMAP
50
50
00
20
20
00
00
10
10
08
08
8C
7A
ENDCHAR
STARTCHAR 0x0028
ENCODING 40
SWIDTH 420 0
DWIDTH 7 0
BBX 5 13 0 -1
BITMAP
50
50
00
50
50
00
00
10
10
08
08
88
78
ENDCHAR
STARTCHAR 0x0029
ENCODING 41
SWIDTH 480 0
DWIDTH 8 0
BBX 7 13 1 -1
BITMAP
50
50
00
50
50
00
00
10
10
08
08
8C
7A
ENDCHAR
STARTCHAR 0x002A
ENCODING 42
SWIDTH 540 0
DWIDTH 9 0
BBX 7 12 0 -4
BITMAP
12
0C
00
00
04
06
02
02
02
04
8C
78
ENDCHAR
STARTCHAR 0x002B
ENCODING 43
SWIDTH 600 0
DWIDTH 10 0
BBX 9 12 1 -4
BITMAP
1200
0C00
0000
0000
0400
0600
0200
0300
0280
0400
8C00
7800
ENDCHAR
STARTCHAR 0x002C
ENCODING 44
SWIDTH 540 0
DWIDTH 9 0
BBX 7 9 0 -5
BITMAP
04
06
02
02
02
04
8C
7A
04
ENDCHAR
STARTCHAR 0x002D
ENCODING 45
SWIDTH 600 0
DWIDTH 10 0
BBX 9 9 1 -5
BITMAP
0400
0600
0200
0300
0280
0400
8C00
7A00
0400
ENDCHAR
STARTCHAR 0x002E
ENCODING 46
SWIDTH 540 0
DWIDTH 9 0
BBX 7 10 0 -6
BITMAP
04
06
02
02
02
04
8C
78
04
04
ENDCHAR
STARTCHAR 0x002F
ENCODING 47
SWIDTH 600 0
DWIDTH 10 0
BBX 9 10 1 -6
BITMAP
0400
0600
0200
0300
0280
0400
8C00
7800
0400
0400
ENDCHAR
STARTCHAR 0x0030
ENCODING 48
SWIDTH 540 0
DWIDTH 9 0
BBX 7 11 0 -7
BITMAP
04
06
02
02
02
04
8C
78
00
24
18
ENDCHAR
STARTCHAR 0x0031
ENCODING 49
SWIDTH 600 0
DWIDTH 10 0
BBX 9 11 1 -7
BITMAP
0400
0600
0200
0300
0280
0400
8C00
7800
0000
2400
1800
ENDCHAR
STARTCHAR 0x0032
ENCODING 50
SWIDTH 540 0
DWIDTH 9 0
BBX 7 10 0 -6
BITMAP
04
06
02
22
22
04
8C
78
04
04
ENDCHAR
STARTCHAR 0x0033
ENCODING 51
SWIDTH 600 0
DWIDTH 10 0
BBX 9 10 1 -6
BITMAP
0400
0600
0200
2300
2280
0400
8C00
7800
0400
0400
ENDCHAR
STARTCHAR 0x0034
ENCODING 52
SWIDTH 540 0
DWIDTH 9 0
BBX 7 12 0 -4
BITMAP
0A
0A
00
00
04
06
02
02
02
04
8C
78
ENDCHAR
STARTCHAR 0x0035
ENCODING 53
SWIDTH 600 0
DWIDTH 10 0
BBX 9 12 1 -4
BITMAP
0A00
0A00
0000
0000
0400
0600
0200
0300
0280
0400
8C00
7800
ENDCHAR
STARTCHAR 0x0036
ENCODING 54
SWIDTH 540 0
DWIDTH 9 0
BBX 7 15 0 -4
BITMAP
0A
0A
00
0A
0A
00
00
04
06
02
02
02
04
8C
78
ENDCHAR
STARTCHAR 0x0037
ENCODING 55
SWIDTH 600 0
DWIDTH 10 0
BBX 9 15 1 -4
BITMAP
0A00
0A00
0000
0A00
0A00
0000
0000
0400
0600
0200
0300
0280
0400
8C00
7800
ENDCHAR
STARTCHAR 0x0038
ENCODING 56
SWIDTH 960 0
DWIDTH 16 0
BBX 14 11 0 -5
BITMAP
0040
0040
0000
0004
4124
8124
81FC
8100
4200
3C10
0010
ENDCHAR
STARTCHAR 0x0039
ENCODING 57
SWIDTH 960 0
DWIDTH 16 0
BBX 15 11 1 -5
BITMAP
0040
0040
0000
0004
4124
8124
81FE
8100
4200
3C10
0010
ENDCHAR
STARTCHAR 0x003A
ENCODING 58
SWIDTH 600 0
DWIDTH 10 0
BBX 9 11 0 -5
BITMAP
0800
0800
0000
0080
2480
2480
FF80
0000
0000
0200
0200
ENDCHAR
STARTCHAR 0x003B
ENCODING 59
SWIDTH 600 0
DWIDTH 10 0
BBX 10 11 0 -5
BITMAP
0800
0800
0000
0080
2480
2480
FFC0
0000
0000
0200
0200
ENDCHAR
STARTCHAR 0x003C
ENCODING 60
SWIDTH 960 0
DWIDTH 16 0
BBX 14 11 0 -8
BITMAP
0004
4124
8124
81FC
8100
4200
3C28
0028
0000
0010
0010
ENDCHAR
STARTCHAR 0x003D
ENCODING 61
SWIDTH 960 0
DWIDTH 16 0
BBX 15 10 1 -7
BITMAP
0004
4124
8124
81FE
8100
4250
3C50
0000
0020
0020
ENDCHAR
STARTCHAR 0x003E
ENCODING 62
SWIDTH 600 0
DWIDTH 10 0
BBX 9 10 0 -7
BITMAP
0080
2480
2480
FF80
0000
0A00
0A00
0000
0400
0400
ENDCHAR
STARTCHAR 0x003F
ENCODING 63
SWIDTH 600 0
DWIDTH 10 0
BBX 10 10 0 -7
BITMAP
0080
2480
2480
FFC0
0000
0A00
0A00
0000
0400
0400
ENDCHAR
STARTCHAR 0x0040
ENCODING 64
SWIDTH 960 0
DWIDTH 16 0
BBX 14 17 0 -8
BITMAP
0020
0020
0000
0050
0050
0000
0004
4124
8124
81FC
8100
4200
3C28
0028
0000
0010
0010
ENDCHAR
STARTCHAR 0x0041
ENCODING 65
SWIDTH 960 0
DWIDTH 16 0
BBX 15 16 1 -7
BITMAP
0020
0020
0000
0050
0050
0000
0004
4124
8124
81FE
8100
4250
3C50
0000
0020
0020
ENDCHAR
STARTCHAR 0x0042
ENCODING 66
SWIDTH 600 0
DWIDTH 10 0
BBX 9 16 0 -7
BITMAP
0400
0400
0000
0A00
0A00
0000
0080
2480
2480
FF80
0000
0A00
0A00
0000
0400
0400
ENDCHAR
STARTCHAR 0x0043
ENCODING 67
SWIDTH 600 0
DWIDTH 10 0
BBX 10 16 0 -7
BITMAP
0400
0400
0000
0A00
0A00
0000
0080
2480
2480
FFC0
0000
0A00
0A00
0000
0400
0400
ENDCHAR
STARTCHAR 0x0044
ENCODING 68
SWIDTH 1200 0
DWIDTH 20 0
BBX 19 7 0 -4
BITMAP
000380
410C40
811020
81FFE0
810000
420500
3C0500
ENDCHAR
STARTCHAR 0x0045
ENCODING 69
SWIDTH 1260 0
DWIDTH 21 0
BBX 20 7 1 -4
BITMAP
000380
410C40
811020
81FFF0
810000
420A00
3C0A00
ENDCHAR
STARTCHAR 0x0046
ENCODING 70
SWIDTH 960 0
DWIDTH 16 0
BBX 15 7 0 -4
BITMAP
0038
10C4
1102
EFFE
0000
00A0
00A0
ENDCHAR
STARTCHAR 0x0047
ENCODING 71
SWIDTH 960 0
DWIDTH 16 0
BBX 16 7 0 -4
BITMAP
0038
10C4
1102
EFFF
0000
00A0
00A0
ENDCHAR
STARTCHAR 0x0048
ENCODING 72
SWIDTH 1200 0
DWIDTH 20 0
BBX 19 14 0 -4
BITMAP
000400
000400
000000
000A00
000A00
000000
000000
000380
410C40
811020
81FFE0
810000
420000
3C0000
ENDCHAR
STARTCHAR 0x0049
ENCODING 73
SWIDTH 1260 0
DWIDTH 21 0
BBX 20 14 1 -4
BITMAP
000400
000400
000000
000A00
000A00
000000
000000
000380
410C40
811020
81FFF0
810000
420000
3C0000
ENDCHAR
STARTCHAR 0x004A
ENCODING 74
SWIDTH 960 0
DWIDTH 16 0
BBX 15 11 0 -1
BITMAP
0040
0040
0000
00A0
00A0
0000
0000
0038
10C4
1102
EFFE
ENDCHAR
STARTCHAR 0x004B
ENCODING 75
SWIDTH 960 0
DWIDTH 16 0
BBX 16 11 0 -1
BITMAP
0040
0040
0000
00A0
00A0
0000
0000
0038
10C4
1102
EFFF
ENDCHAR
STARTCHAR 0x004C
ENCODING 76
SWIDTH 660 0
DWIDTH 11 0
BBX 10 12 0 -1
BITMAP
1000
1100
1900
1000
1280
1280
1000
1380
1440
1840
1040
FF80
ENDCHAR
STARTCHAR 0x004D
ENCODING 77
SWIDTH 780 0
DWIDTH 13 0
BBX 12 12 1 -1
BITMAP
1000
1100
1900
1000
1280
1280
1000
1380
1440
1840
1040
FFF0
ENDCHAR
STARTCHAR 0x004E
ENCODING 78
SWIDTH 600 0
DWIDTH 10 0
BBX 9 12 0 -1
BITMAP
2000
2200
3200
2000
2500
2500
2000
2700
2880
3080
2080
FF00
ENDCHAR
STARTCHAR 0x004F
ENCODING 79
SWIDTH 660 0
DWIDTH 11 0
BBX 11 12 0 -1
BITMAP
2000
2200
3200
2000
2500
2500
2000
2700
2880
3080
2080
FFE0
ENDCHAR
STARTCHAR 0x0050
ENCODING 80
SWIDTH 540 0
DWIDTH 9 0
BBX 7 18 0 -5
BITMAP
10
10
00
28
28
00
00
38
40
40
38
60
40
80
80
80
82
7C
ENDCHAR
STARTCHAR 0x0051
ENCODING 81
SWIDTH 540 0
DWIDTH 9 0
BBX 8 15 1 -5
BITMAP
20
20
00
50
50
00
70
78
38
70
8F
80
80
82
7C
ENDCHAR
STARTCHAR 0x0052
ENCODING 82
SWIDTH 540 0
DWIDTH 9 0
BBX 8 11 0 -1
BITMAP
08
08
00
14
14
00
1C
22
20
10
FF
ENDCHAR
STARTCHAR 0x0053
ENCODING 83
SWIDTH 480 0
DWIDTH 8 0
BBX 8 11 0 -1
BITMAP
10
10
00
28
28
00
38
3C
1C
18
E7
ENDCHAR
STARTCHAR 0x0054
ENCODING 84
SWIDTH 900 0
DWIDTH 15 0
BBX 13 7 0 -1
BITMAP
0030
0058
8048
8058
8028
4008
3FF0
ENDCHAR
STARTCHAR 0x0055
ENCODING 85
SWIDTH 900 0
DWIDTH 15 0
BBX 14 7 1 -1
BITMAP
0030
0058
8048
8058
8028
4008
3FFC
ENDCHAR
STARTCHAR 0x0056
ENCODING 86
SWIDTH 360 0
DWIDTH 6 0
BBX 5 7 0 -1
BITMAP
30
58
48
58
28
08
F0
ENDCHAR
STARTCHAR 0x0057
ENCODING 87
SWIDTH 360 0
DWIDTH 6 0
BBX 6 7 0 -1
BITMAP
30
58
48
58
28
08
FC
ENDCHAR
STARTCHAR 0x0058
ENCODING 88
SWIDTH 900 0
DWIDTH 15 0
BBX 13 10 0 -4
BITMAP
0030
0058
8048
8058
8028
4008
3FF0
0000
0020
0020
ENDCHAR
STARTCHAR 0x0059
ENCODING 89
SWIDTH 900 0
DWIDTH 15 0
BBX 14 10 1 -4
BITMAP
0030
0058
8048
8058
8028
4008
3FFC
0000
0020
0020
ENDCHAR
STARTCHAR 0x005A
ENCODING 90
SWIDTH 360 0
DWIDTH 6 0
BBX 5 10 0 -4
BITMAP
30
58
48
58
28
08
F0
00
20
20
ENDCHAR
STARTCHAR 0x005B
ENCODING 91
SWIDTH 360 0
DWIDTH 6 0
BBX 6 10 0 -4
BITMAP
30
58
48
58
28
08
FC
00
20
20
ENDCHAR
STARTCHAR 0x005C
ENCODING 92
SWIDTH 900 0
DWIDTH 15 0
BBX 13 14 0 -4
BITMAP
0020
0020
0000
0000
0030
0058
8048
8058
8028
4008
3FF0
0000
0100
0100
ENDCHAR
STARTCHAR 0x005D
ENCODING 93
SWIDTH 900 0
DWIDTH 15 0
BBX 14 14 1 -4
BITMAP
0020
0020
0000
0000
0030
0058
8048
8058
8028
4008
3FFC
0000
0080
0080
ENDCHAR
STARTCHAR 0x005E
ENCODING 94
SWIDTH 360 0
DWIDTH 6 0
BBX 5 14 0 -4
BITMAP
20
20
00
00
30
58
48
58
28
08
F0
00
80
80
ENDCHAR
STARTCHAR 0x005F
ENCODING 95
SWIDTH 360 0
DWIDTH 6 0
BBX 6 14 0 -4
BITMAP
20
20
00
00
30
58
48
58
28
08
FC
00
80
80
ENDCHAR
STARTCHAR 0x0060
ENCODING 96
SWIDTH 900 0
DWIDTH 15 0
BBX 13 13 0 -7
BITMAP
0030
0058
8048
8058
8028
4008
3FF0
0000
0050
0050
0000
0020
0020
ENDCHAR
STARTCHAR 0x0061
ENCODING 97
SWIDTH 900 0
DWIDTH 15 0
BBX 14 13 1 -7
BITMAP
0030
0058
8048
8058
8028
4008
3FFC
0000
0050
0050
0000
0020
0020
ENDCHAR
STARTCHAR 0x0062
ENCODING 98
SWIDTH 360 0
DWIDTH 6 0
BBX 5 13 0 -7
BITMAP
30
58
48
58
28
08
F0
00
50
50
00
20
20
ENDCHAR
STARTCHAR 0x0063
ENCODING 99
SWIDTH 360 0
DWIDTH 6 0
BBX 6 13 0 -7
BITMAP
30
58
48
58
28
08
FC
00
50
50
00
20
20
ENDCHAR
STARTCHAR 0x0064
ENCODING 100
SWIDTH 600 0
DWIDTH 10 0
BBX 8 13 0 -4
BITMAP
04
04
00
00
06
0B
09
0B
85
81
81
42
3C
ENDCHAR
STARTCHAR 0x0065
ENCODING 101
SWIDTH 720 0
DWIDTH 12 0
BBX 11 13 1 -4
BITMAP
0400
0400
0000
0000
0600
0B00
0900
0B00
85C0
8160
8100
4200
3C00
ENDCHAR
STARTCHAR 0x0066
ENCODING 102
SWIDTH 360 0
DWIDTH 6 0
BBX 5 10 0 -1
BITMAP
20
20
00
00
30
58
48
58
28
F0
ENDCHAR
STARTCHAR 0x0067
ENCODING 103
SWIDTH 360 0
DWIDTH 6 0
BBX 6 10 0 -1
BITMAP
20
20
00
00
30
58
48
58
28
FC
ENDCHAR
STARTCHAR 0x0068
ENCODING 104
SWIDTH 600 0
DWIDTH 10 0
BBX 8 16 0 -4
BITMAP
04
04
00
0A
0A
00
00
06
0B
09
0B
85
81
81
42
3C
ENDCHAR
STARTCHAR 0x0069
ENCODING 105
SWIDTH 720 0
DWIDTH 12 0
BBX 11 16 1 -4
BITMAP
0400
0400
0000
0A00
0A00
0000
0000
0600
0B00
0900
0B00
85C0
8160
8100
4200
3C00
ENDCHAR
STARTCHAR 0x006A
ENCODING 106
SWIDTH 360 0
DWIDTH 6 0
BBX 5 13 0 -1
BITMAP
20
20
00
50
50
00
00
30
58
48
58
28
F0
ENDCHAR
STARTCHAR 0x006B
ENCODING 107
SWIDTH 360 0
DWIDTH 6 0
BBX 6 13 0 -1
BITMAP
20
20
00
50
50
00
00
30
58
48
58
28
FC
ENDCHAR
STARTCHAR 0x006C
ENCODING 108
SWIDTH 960 0
DWIDTH 16 0
BBX 14 8 0 -1
BITMAP
0600
1800
2000
2000
1FF8
0004
8004
7FF8
ENDCHAR
STARTCHAR 0x006D
ENCODING 109
SWIDTH 1020 0
DWIDTH 17 0
BBX 16 8 1 -1
BITMAP
0600
1800
2000
2000
1FF8
0004
8004
7FFB
ENDCHAR
STARTCHAR 0x006E
ENCODING 110
SWIDTH 900 0
DWIDTH 15 0
BBX 14 8 0 -1
BITMAP
0600
1800
2000
2000
1FF8
0004
0004
FFF8
ENDCHAR
STARTCHAR 0x006F
ENCODING 111
SWIDTH 960 0
DWIDTH 16 0
BBX 16 8 0 -1
BITMAP
0600
1800
2000
2000
1FF8
0004
0004
FFFB
ENDCHAR
STARTCHAR 0x0070
ENCODING 112
SWIDTH 900 0
DWIDTH 15 0
BBX 15 12 0 -1
BITMAP
0006
001C
0074
0094
0088
0060
4010
8010
8010
8010
4060
3F80
ENDCHAR
STARTCHAR 0x0071
ENCODING 113
SWIDTH 1020 0
DWIDTH 17 0
BBX 16 12 1 -1
BITMAP
0006
001C
0074
0094
0088
0060
4010
8010
8010
8010
4068
3F87
ENDCHAR
STARTCHAR 0x0072
ENCODING 114
SWIDTH 480 0
DWIDTH 8 0
BBX 9 12 0 -1
BITMAP
0180
0700
1D00
2500
2200
1800
0400
0400
0400
0400
1800
E000
ENDCHAR
STARTCHAR 0x0073
ENCODING 115
SWIDTH 600 0
DWIDTH 10 0
BBX 10 12 0 -1
BITMAP
0180
0700
1D00
2500
2200
1800
0400
0400
0400
0400
1A00
E1C0
ENDCHAR
STARTCHAR 0x0074
ENCODING 116
SWIDTH 660 0
DWIDTH 11 0
BBX 10 15 0 -1
BITMAP
0200
0200
0000
0080
0080
00C0
0080
0480
0C80
0480
0C80
8080
8080
4080
3F00
ENDCHAR
STARTCHAR 0x0075
ENCODING 117
SWIDTH 780 0
DWIDTH 13 0
BBX 12 15 1 -1
BITMAP
0200
0200
0000
0080
0080
00C0
0080
0480
0C80
0480
0C80
8080
8080
40E0
3F30
ENDCHAR
STARTCHAR 0x0076
ENCODING 118
SWIDTH 480 0
DWIDTH 8 0
BBX 9 14 0 -1
BITMAP
0800
0800
0180
0600
1800
2000
2000
1800
0400
0400
0400
0400
1800
E000
ENDCHAR
STARTCHAR 0x0077
ENCODING 119
SWIDTH 600 0
DWIDTH 10 0
BBX 10 14 0 -1
BITMAP
0800
0800
0180
0600
1800
2000
2000
1800
0400
0400
0400
0400
1A00
E1C0
ENDCHAR
STARTCHAR 0x0078
ENCODING 120
SWIDTH 660 0
DWIDTH 11 0
BBX 10 18 0 -7
BITMAP
0080
0080
00C0
0080
0480
0C80
0480
0C80
8080
8080
4080
3F00
0000
1400
1400
0000
0800
0800
ENDCHAR
STARTCHAR 0x0079
ENCODING 121
SWIDTH 780 0
DWIDTH 13 0
BBX 12 18 1 -7
BITMAP
0080
0080
00C0
0080
0480
0C80
0480
0C80
8080
8080
40E0
3F30
0000
1400
1400
0000
0800
0800
ENDCHAR
STARTCHAR 0x007A
ENCODING 122
SWIDTH 480 0
DWIDTH 8 0
BBX 9 18 0 -7
BITMAP
0180
0600
1800
2000
2000
1800
0400
0400
0400
0400
1800
E000
0000
5000
5000
0000
2000
2000
ENDCHAR
STARTCHAR 0x007B
ENCODING 123
SWIDTH 600 0
DWIDTH 10 0
BBX 10 18 0 -7
BITMAP
0180
0600
1800
2000
2000
1800
0400
0400
0400
0400
1A00
E1C0
0000
5000
5000
0000
2000
2000
ENDCHAR
STARTCHAR 0x007C
ENCODING 124
SWIDTH 960 0
DWIDTH 16 0
BBX 15 14 0 -1
BITMAP
0006
0018
0066
009C
0074
0094
0088
0060
4010
8010
8010
8010
4060
3F80
ENDCHAR
STARTCHAR 0x007D
ENCODING 125
SWIDTH 1020 0
DWIDTH 17 0
BBX 16 14 1 -1
BITMAP
0006
0018
0066
009C
0074
0094
0088
0060
4010
8010
8010
8010
4068
3F87
ENDCHAR
STARTCHAR 0x007E
ENCODING 126
SWIDTH 480 0
DWIDTH 8 0
BBX 9 14 0 -1
BITMAP
0180
0600
1980
2700
1D00
2500
2200
1800
0400
0400
0400
0400
1800
E000
ENDCHAR
STARTCHAR 0x007F
ENCODING 127
SWIDTH 600 0
DWIDTH 10 0
BBX 10 14 0 -1
BITMAP
0180
0600
1980
2700
1D00
2500
2200
1800
0400
0400
0400
0400
1A00
E1C0
ENDCHAR
STARTCHAR 0x0080
ENCODING 128
SWIDTH 900 0
DWIDTH 15 0
BBX 15 17 0 -4
BITMAP
0006
0018
0066
0098
0060
0080
0080
0060
4010
8010
8010
8010
4060
3F80
0000
0A00
0A00
ENDCHAR
STARTCHAR 0x0081
ENCODING 129
SWIDTH 1020 0
DWIDTH 17 0
BBX 16 17 1 -4
BITMAP
0006
0018
0066
0098
0060
0080
0080
0060
4010
8010
8010
8010
4068
3F87
0000
0A00
0A00
ENDCHAR
STARTCHAR 0x0082
ENCODING 130
SWIDTH 480 0
DWIDTH 8 0
BBX 9 17 0 -4
BITMAP
0180
0600
1980
2600
1800
2000
2000
1800
0400
0400
0400
0400
1800
E000
0000
5000
5000
ENDCHAR
STARTCHAR 0x0083
ENCODING 131
SWIDTH 600 0
DWIDTH 10 0
BBX 10 17 0 -4
BITMAP
0180
0600
1980
2600
1800
2000
2000
1800
0400
0400
0400
0400
1A00
E1C0
0000
5000
5000
ENDCHAR
STARTCHAR 0x0084
ENCODING 132
SWIDTH 900 0
DWIDTH 15 0
BBX 15 18 0 -1
BITMAP
0040
0040
0010
0050
0046
0018
0066
0098
0060
0080
0080
0060
4010
8010
8010
8010
4060
3F80
ENDCHAR
STARTCHAR 0x0085
ENCODING 133
SWIDTH 1020 0
DWIDTH 17 0
BBX 16 18 1 -1
BITMAP
0040
0040
0010
0050
0046
0018
0066
0098
0060
0080
0080
0060
4010
8010
8010
8010
4068
3F87
ENDCHAR
STARTCHAR 0x0086
ENCODING 134
SWIDTH 480 0
DWIDTH 8 0
BBX 9 18 0 -1
BITMAP
1000
1000
0400
1400
1180
0600
1980
2600
1800
2000
2000
1800
0400
0400
0400
0400
1800
E000
ENDCHAR
STARTCHAR 0x0087
ENCODING 135
SWIDTH 600 0
DWIDTH 10 0
BBX 10 18 0 -1
BITMAP
1000
1000
0400
1400
1180
0600
1980
2600
1800
2000
2000
1800
0400
0400
0400
0400
1A00
E1C0
ENDCHAR
STARTCHAR 0x0088
ENCODING 136
SWIDTH 540 0
DWIDTH 9 0
BBX 8 16 0 -3
BITMAP
09
06
00
02
02
03
02
02
02
02
02
82
82
82
44
38
ENDCHAR
STARTCHAR 0x0089
ENCODING 137
SWIDTH 660 0
DWIDTH 11 0
BBX 10 16 1 -3
BITMAP
0900
0600
0000
0200
0200
0300
0200
0200
0200
0200
0200
8200
8380
82C0
4400
3800
ENDCHAR
STARTCHAR 0x008A
ENCODING 138
SWIDTH 300 0
DWIDTH 5 0
BBX 4 14 0 -1
BITMAP
90
60
00
20
20
30
20
20
20
20
20
20
20
C0
ENDCHAR
STARTCHAR 0x008B
ENCODING 139
SWIDTH 300 0
DWIDTH 5 0
BBX 5 14 0 -1
BITMAP
90
60
00
20
20
30
20
20
20
20
20
20
20
D8
ENDCHAR
STARTCHAR 0x008C
ENCODING 140
SWIDTH 540 0
DWIDTH 9 0
BBX 8 17 0 -3
BITMAP
02
02
00
00
02
02
03
02
02
02
02
02
82
82
82
44
38
ENDCHAR
STARTCHAR 0x008D
ENCODING 141
SWIDTH 660 0
DWIDTH 11 0
BBX 10 17 1 -3
BITMAP
0200
0200
0000
0000
0200
0200
0300
0200
0200
0200
0200
0200
8200
8380
82C0
4400
3800
ENDCHAR
STARTCHAR 0x008E
ENCODING 142
SWIDTH 300 0
DWIDTH 5 0
BBX 4 15 0 -1
BITMAP
20
20
00
00
20
20
30
20
20
20
20
20
20
20
C0
ENDCHAR
STARTCHAR 0x008F
ENCODING 143
SWIDTH 300 0
DWIDTH 5 0
BBX 5 15 0 -1
BITMAP
20
20
00
00
20
20
30
20
20
20
20
20
20
20
D8
ENDCHAR
STARTCHAR 0x0090
ENCODING 144
SWIDTH 540 0
DWIDTH 9 0
BBX 8 20 0 -3
BITMAP
02
02
00
05
05
00
00
02
02
03
02
02
02
02
02
82
82
82
44
38
ENDCHAR
STARTCHAR 0x0091
ENCODING 145
SWIDTH 660 0
DWIDTH 11 0
BBX 10 20 1 -3
BITMAP
0200
0200
0000
0500
0500
0000
0000
0200
0200
0300
0200
0200
0200
0200
0200
8200
8380
82C0
4400
3800
ENDCHAR
STARTCHAR 0x0092
ENCODING 146
SWIDTH 300 0
DWIDTH 5 0
BBX 4 18 0 -1
BITMAP
20
20
00
50
50
00
00
20
20
30
20
20
20
20
20
20
20
C0
ENDCHAR
STARTCHAR 0x0093
ENCODING 147
SWIDTH 300 0
DWIDTH 5 0
BBX 5 18 0 -1
BITMAP
20
20
00
50
50
00
00
20
20
30
20
20
20
20
20
20
20
D8
ENDCHAR
STARTCHAR 0x0094
ENCODING 148
SWIDTH 600 0
DWIDTH 10 0
BBX 8 12 1 -5
BITMAP
10
10
00
02
02
41
81
81
82
86
7D
07
ENDCHAR
STARTCHAR 0x0095
ENCODING 149
SWIDTH 660 0
DWIDTH 11 0
BBX 10 12 1 -5
BITMAP
1000
1000
0000
0200
0200
4100
8180
8140
8200
8600
7D00
0700
ENDCHAR
STARTCHAR 0x0096
ENCODING 150
SWIDTH 360 0
DWIDTH 6 0
BBX 5 12 0 -4
BITMAP
10
10
00
10
08
08
08
08
F0
60
90
60
ENDCHAR
STARTCHAR 0x0097
ENCODING 151
SWIDTH 420 0
DWIDTH 7 0
BBX 7 12 0 -4
BITMAP
20
20
00
20
20
10
10
10
FE
60
90
60
ENDCHAR
STARTCHAR 0x0098
ENCODING 152
SWIDTH 600 0
DWIDTH 10 0
BBX 8 14 1 -4
BITMAP
10
10
00
28
28
00
02
02
41
81
81
82
86
78
ENDCHAR
STARTCHAR 0x0099
ENCODING 153
SWIDTH 660 0
DWIDTH 11 0
BBX 10 14 1 -4
BITMAP
1000
1000
0000
2800
2800
0000
0200
0200
4100
8180
8140
8200
8600
7800
ENDCHAR
STARTCHAR 0x009A
ENCODING 154
SWIDTH 360 0
DWIDTH 6 0
BBX 5 12 0 -1
BITMAP
10
10
00
28
28
00
10
08
08
08
08
F0
ENDCHAR
STARTCHAR 0x009B
ENCODING 155
SWIDTH 420 0
DWIDTH 7 0
BBX 7 12 0 -1
BITMAP
20
20
00
50
50
00
20
20
10
10
10
FE
ENDCHAR
STARTCHAR 0x009C
ENCODING 156
SWIDTH 480 0
DWIDTH 8 0
BBX 5 11 1 0
BITMAP
30
40
30
40
00
20
30
50
98
88
78
ENDCHAR
STARTCHAR 0x009D
ENCODING 157
SWIDTH 420 0
DWIDTH 7 0
BBX 6 13 1 -1
BITMAP
18
20
18
20
00
10
30
50
90
90
70
10
0C
ENDCHAR
STARTCHAR 0x009E
ENCODING 158
SWIDTH 480 0
DWIDTH 8 0
BBX 5 11 1 0
BITMAP
30
40
30
40
00
20
30
50
98
88
78
ENDCHAR
STARTCHAR 0x009F
ENCODING 159
SWIDTH 420 0
DWIDTH 7 0
BBX 6 10 1 0
BITMAP
18
20
18
20
00
00
30
78
8C
04
ENDCHAR
STARTCHAR 0x00A0
ENCODING 160
SWIDTH 480 0
DWIDTH 8 0
BBX 5 10 1 0
BITMAP
50
50
00
00
20
30
50
98
88
78
ENDCHAR
STARTCHAR 0x00A1
ENCODING 161
SWIDTH 420 0
DWIDTH 7 0
BBX 6 8 1 0
BITMAP
28
28
00
00
30
78
8C
04
ENDCHAR
STARTCHAR 0x00A2
ENCODING 162
SWIDTH 540 0
DWIDTH 9 0
BBX 7 8 0 -3
BITMAP
04
0A
0A
0E
12
2A
9C
78
ENDCHAR
STARTCHAR 0x00A3
ENCODING 163
SWIDTH 600 0
DWIDTH 10 0
BBX 9 8 1 -3
BITMAP
0400
0A00
0A00
0E00
1300
2A80
9C00
7800
ENDCHAR
STARTCHAR 0x00A4
ENCODING 164
SWIDTH 540 0
DWIDTH 9 0
BBX 7 12 0 -3
BITMAP
0A
0A
00
00
04
0A
0A
0E
02
02
84
78
ENDCHAR
STARTCHAR 0x00A5
ENCODING 165
SWIDTH 600 0
DWIDTH 10 0
BBX 9 12 1 -3
BITMAP
0A00
0A00
0000
0000
0400
0A00
0A00
0E00
0300
0280
8400
7800
ENDCHAR
STARTCHAR 0x00A6
ENCODING 166
SWIDTH 840 0
DWIDTH 14 0
BBX 12 8 0 -3
BITMAP
0070
1080
3100
61C0
A020
2020
20C0
1F00
ENDCHAR
STARTCHAR 0x00A7
ENCODING 167
SWIDTH 780 0
DWIDTH 13 0
BBX 12 6 1 -5
BITMAP
1000
3070
60C0
A020
20C0
1F00
ENDCHAR
STARTCHAR 0x00A8
ENCODING 168
SWIDTH 720 0
DWIDTH 12 0
BBX 10 10 0 -3
BITMAP
2400
1800
01C0
4200
4400
8700
8080
8080
8300
7C00
ENDCHAR
STARTCHAR 0x00A9
ENCODING 169
SWIDTH 660 0
DWIDTH 11 0
BBX 10 7 1 -5
BITMAP
2400
1800
41C0
8300
8080
8300
7C00
ENDCHAR
STARTCHAR 0x00AA
ENCODING 170
SWIDTH 360 0
DWIDTH 6 0
BBX 5 9 0 -1
BITMAP
48
30
00
10
08
08
08
08
F0
ENDCHAR
STARTCHAR 0x00AB
ENCODING 171
SWIDTH 420 0
DWIDTH 7 0
BBX 7 9 0 -1
BITMAP
90
60
00
20
20
10
10
10
FE
ENDCHAR
STARTCHAR 0x00AC
ENCODING 172
SWIDTH 720 0
DWIDTH 12 0
BBX 10 14 0 -9
BITMAP
01C0
4200
4400
8700
8080
8080
8300
7C00
0000
2800
2800
0000
1000
1000
ENDCHAR
STARTCHAR 0x00AD
ENCODING 173
SWIDTH 660 0
DWIDTH 11 0
BBX 10 9 1 -9
BITMAP
41C0
8300
8080
8300
7C00
0000
6C00
0000
3000
ENDCHAR
STARTCHAR 0x00AE
ENCODING 174
SWIDTH 360 0
DWIDTH 6 0
BBX 5 12 0 -7
BITMAP
10
08
08
08
08
F0
00
50
50
00
20
20
ENDCHAR
STARTCHAR 0x00AF
ENCODING 175
SWIDTH 420 0
DWIDTH 7 0
BBX 7 12 0 -7
BITMAP
20
20
10
10
10
FE
00
28
28
00
10
10
ENDCHAR
STARTCHAR 0x00B0
ENCODING 176
SWIDTH 360 0
DWIDTH 6 0
BBX 5 6 0 -1
BITMAP
10
08
08
08
08
F0
ENDCHAR
STARTCHAR 0x00B1
ENCODING 177
SWIDTH 420 0
DWIDTH 7 0
BBX 7 6 0 -1
BITMAP
20
20
10
10
10
FE
ENDCHAR
STARTCHAR 0x00B2
ENCODING 178
SWIDTH 720 0
DWIDTH 12 0
BBX 10 13 -1 -3
BITMAP
1000
28C0
1100
28C0
4100
0400
0A00
0A00
0E00
0300
0280
8400
7800
ENDCHAR
STARTCHAR 0x00D0
ENCODING 208
SWIDTH 480 0
DWIDTH 8 0
BBX 7 15 1 -1
BITMAP
12
0C
00
04
06
04
C4
E4
28
18
18
18
28
48
70
ENDCHAR
STARTCHAR 0x00D1
ENCODING 209
SWIDTH 720 0
DWIDTH 12 0
BBX 11 16 1 -2
BITMAP
0900
0600
0000
0200
0200
0300
6200
7200
1200
1200
0A00
0A00
0D00
1900
70E0
C000
ENDCHAR
STARTCHAR 0x00D2
ENCODING 210
SWIDTH 480 0
DWIDTH 8 0
BBX 7 16 1 -1
BITMAP
04
04
00
00
04
06
04
C4
E4
28
18
18
18
28
48
70
ENDCHAR
STARTCHAR 0x00D3
ENCODING 211
SWIDTH 720 0
DWIDTH 12 0
BBX 11 17 1 -2
BITMAP
0200
0200
0000
0000
0200
0200
0300
6200
7200
1200
1200
0A00
0A00
0D00
1900
70E0
C000
ENDCHAR
STARTCHAR 0x00D4
ENCODING 212
SWIDTH 480 0
DWIDTH 8 0
BBX 7 18 1 -1
BITMAP
04
04
00
0A
0A
00
04
06
04
C4
E4
28
18
18
18
28
48
70
ENDCHAR
STARTCHAR 0x00D5
ENCODING 213
SWIDTH 720 0
DWIDTH 12 0
BBX 11 19 1 -2
BITMAP
0200
0200
0000
0500
0500
0000
0200
0200
0300
6200
7200
1200
1200
0A00
0A00
0D00
1900
70E0
C000
ENDCHAR
STARTCHAR 0x00F0
ENCODING 240
SWIDTH 1260 0
DWIDTH 21 0
BBX 19 14 1 -4
BITMAP
028000
028000
02C000
028000
028000
028000
028840
028460
828420
828420
827820
440040
3858C0
005780
ENDCHAR
STARTCHAR 0x00F4
ENCODING 244
SWIDTH 600 0
DWIDTH 10 0
BBX 8 10 2 0
BITMAP
B9
EE
E4
60
60
20
30
10
10
10
ENDCHAR
ENDFONT
